<svg width="39" height="19" viewBox="0 0 39 19" fill="none" xmlns="http://www.w3.org/2000/svg">
<path fill-rule="evenodd" clip-rule="evenodd" d="M38.3809 9.5C38.3809 9.02759 38.1932 8.57453 37.8592 8.24049C37.5251 7.90645 37.072 7.71878 36.5996 7.71878L6.69855 7.71878L11.686 3.08761C12.0325 2.76637 12.2371 2.32067 12.2549 1.84855C12.2727 1.37644 12.1023 0.916581 11.781 0.570148C11.4598 0.223714 11.0141 0.0190801 10.542 0.00126546C10.0698 -0.0165511 9.60998 0.15391 9.26354 0.47515L0.95109 8.19377C0.771235 8.36051 0.627753 8.5626 0.52963 8.78736C0.431508 9.01213 0.38086 9.25475 0.38086 9.5C0.38086 9.74525 0.431508 9.98786 0.52963 10.2126C0.627753 10.4374 0.771235 10.6395 0.951089 10.8062L9.26354 18.5248C9.60997 18.8461 10.0698 19.0165 10.542 18.9987C11.0141 18.9809 11.4598 18.7763 11.781 18.4299C12.1023 18.0834 12.2727 17.6236 12.2549 17.1514C12.2371 16.6793 12.0325 16.2336 11.686 15.9124L6.69855 11.2812L36.5996 11.2812C37.072 11.2812 37.5251 11.0936 37.8592 10.7595C38.1932 10.4255 38.3809 9.97241 38.3809 9.5Z" fill="#333333"/>
</svg>

